<?xml version="1.0" encoding="UTF-8"?>
<svg width="517px" height="256px" viewBox="0 0 517 256" version="1.1" xmlns="http://www.w3.org/2000/svg" xmlns:xlink="http://www.w3.org/1999/xlink">
    <!-- Generator: Sketch 48.1 (47250) - http://www.bohemiancoding.com/sketch -->
    <title>logo</title>
    <desc>Created with Sketch.</desc>
    <defs></defs>
    <g id="base" stroke="none" stroke-width="1" fill="none" fill-rule="evenodd">
        <g id="logo" fill="#000000">
            <g id="drip-lockup" transform="translate(122.000000, 81.000000)">
                <path d="M132.140235,75.2900703 L121.842715,75.2900703 L121.842715,67.1985128 C116.273356,73.7339015 109.023354,76.9497139 100.09154,76.9497139 C91.2650946,76.9497139 83.6995701,73.9414292 78.4457335,68.8584455 C73.191897,63.7754618 70.0395951,56.5137262 70.0395951,47.7998746 C70.0395951,39.0857341 73.0868203,31.8242875 78.4457335,26.7410148 C83.8046468,21.7617949 91.2650946,18.7535103 100.196617,18.7535103 C109.338584,18.7535103 115.958126,21.6580311 121.842715,28.2971836 L121.842715,0.391932554 L132.140235,0.391932554 L132.140235,75.2900703 Z M101.247384,27.8821282 C88.5330997,27.8821282 80.7574216,35.2473386 80.7574216,47.7998746 C80.7574216,60.3521217 88.5330997,67.7173321 101.247384,67.7173321 C113.96196,67.7173321 121.842715,60.2480688 121.842715,47.7998746 C121.842715,35.3511024 113.96196,27.8821282 101.247384,27.8821282 Z M178.374346,28.7121234 L153.155931,28.7121234 L153.155931,75.2899546 L143.067981,75.2899546 L143.067981,19.7907442 L178.374346,19.7907442 L178.374346,28.7121234 Z M187.723986,75.2902148 L187.723986,19.7907153 L197.916429,19.7907153 L197.916429,75.2902148 L187.723986,75.2902148 Z M186.673511,6.40864643 C186.673511,2.9850173 189.405214,0.288024182 192.872746,0.288024182 C196.235201,0.288024182 198.967488,2.9850173 198.967488,6.40864643 C198.967488,9.83198653 196.235201,12.5289796 192.872746,12.5289796 C189.405214,12.5289796 186.673511,9.83198653 186.673511,6.40864643 Z M207.899944,19.7908598 L218.091803,19.7908598 L218.091803,28.0896559 C223.4513,21.8655588 230.176211,18.4422187 239.84327,18.4422187 C248.669424,18.4422187 256.234948,21.4507924 261.59357,26.5337761 C266.953067,31.6167598 270,38.8784954 270,47.5923469 C270,56.3061984 266.953067,63.567645 261.59357,68.5474429 C256.234948,73.6304266 248.669424,76.6387113 239.738194,76.6387113 C230.596226,76.6387113 223.976684,73.7341905 218.091803,67.094749 L218.091803,95 L207.899944,95 L207.899944,19.7908598 Z M238.687134,67.5100934 C251.401711,67.5100934 259.282465,60.1443049 259.282465,47.5923469 C259.282465,35.0400999 251.401711,27.6748895 238.687134,27.6748895 C225.972558,27.6748895 218.091803,35.1438638 218.091803,47.5923469 C218.091803,60.0408301 225.972558,67.5100934 238.687134,67.5100934 Z" id="wordmark"></path>
                <path d="M58.3584485,46.4742697 C58.3701237,46.7711095 58.3759613,47.0679493 58.3759613,47.3618987 C58.3759613,64.9826776 43.781971,76.7311161 29.1879806,76.7311161 C14.5939903,76.7311161 0,64.9826776 0,47.3618987 C0,47.0679493 0.00583759613,46.7711095 0.0175127884,46.4742697 L8.78558218,46.4742697 C8.76515059,46.7768902 8.75639419,47.0705506 8.75639419,47.3618987 C8.75639419,60.1618494 19.3633064,68.0860551 29.1879806,68.0860551 C39.0126549,68.0860551 49.6195671,60.1618494 49.6195671,47.3618987 C49.6195671,47.0705506 49.6108107,46.7768902 49.5903791,46.4742697 L58.3584485,46.4742697 Z M29.1879806,10.9787361 L22.9329964,19.3064358 L11.8970209,19.3064358 C19.9733352,8.34504182 29.1879806,3.15544362e-30 29.1879806,3.15544362e-30 C29.1879806,3.15544362e-30 38.4026261,8.34504182 46.4789404,19.3064358 L35.4429649,19.3064358 L29.1879806,10.9787361 Z M52.5383652,33.0748877 C52.5383652,36.258039 49.9248734,38.8379726 46.700769,38.8379726 C43.4766647,38.8379726 40.8631729,36.258039 40.8631729,33.0748877 C40.8631729,29.8923144 43.4766647,27.3118027 46.700769,27.3118027 C49.9248734,27.3118027 52.5383652,29.8923144 52.5383652,33.0748877 Z M35.0255768,33.0748877 C35.0255768,36.258039 32.412085,38.8379726 29.1879806,38.8379726 C25.9638763,38.8379726 23.3503845,36.258039 23.3503845,33.0748877 C23.3503845,29.8923144 25.9638763,27.3118027 29.1879806,27.3118027 C32.412085,27.3118027 35.0255768,29.8923144 35.0255768,33.0748877 Z M17.5127884,33.0748877 C17.5127884,36.258039 14.8992966,38.8379726 11.6751923,38.8379726 C8.45108792,38.8379726 5.83759613,36.258039 5.83759613,33.0748877 C5.83759613,29.8923144 8.45108792,27.3118027 11.6751923,27.3118027 C14.8992966,27.3118027 17.5127884,29.8923144 17.5127884,33.0748877 Z" id="drip"></path>
            </g>
        </g>
    </g>
</svg>