<?xml version="1.0" encoding="UTF-8"?>
<svg width="460px" height="148px" viewBox="0 0 460 148" version="1.1" xmlns="http://www.w3.org/2000/svg" xmlns:xlink="http://www.w3.org/1999/xlink">
    <!-- Generator: Sketch 48.1 (47250) - http://www.bohemiancoding.com/sketch -->
    <title>logo</title>
    <desc>Created with Sketch.</desc>
    <defs></defs>
    <g id="base" stroke="none" stroke-width="1" fill="none" fill-rule="evenodd">
        <g id="logo" fill="#000000">
            <g id="drip-lockup" transform="translate(131.000000, 39.000000)">
                <path d="M97.392247,55.4768939 L89.8025937,55.4768939 L89.8025937,49.5146937 C85.6977701,54.3302432 80.3542498,56.6997892 73.7711721,56.6997892 C67.2657549,56.6997892 61.6896831,54.4831583 57.817411,50.7378019 C53.9451389,46.9924455 51.6217757,41.641693 51.6217757,35.2209603 C51.6217757,28.8000146 53.8676935,23.449475 57.817411,19.7039056 C61.7671286,16.0350068 67.2657549,13.818376 73.8486175,13.818376 C80.5865861,13.818376 85.4654338,15.9585492 89.8025937,20.8505563 L89.8025937,0.288792408 L97.392247,0.288792408 L97.392247,55.4768939 Z M74.6230719,20.544726 C65.2521735,20.544726 59.5212107,25.9717232 59.5212107,35.2209603 C59.5212107,44.4699844 65.2521735,49.8969816 74.6230719,49.8969816 C83.9941855,49.8969816 89.8025937,44.3933138 89.8025937,35.2209603 C89.8025937,26.0481807 83.9941855,20.544726 74.6230719,20.544726 Z M131.4685,21.1563014 L112.881594,21.1563014 L112.881594,55.4768087 L105.446401,55.4768087 L105.446401,14.5826536 L131.4685,14.5826536 L131.4685,21.1563014 Z M138.359531,55.4770004 L138.359531,14.5826323 L145.871738,14.5826323 L145.871738,55.4770004 L138.359531,55.4770004 Z M137.585291,4.72216053 C137.585291,2.19948643 139.598658,0.212228344 142.154357,0.212228344 C144.632611,0.212228344 146.646408,2.19948643 146.646408,4.72216053 C146.646408,7.24462165 144.632611,9.23187974 142.154357,9.23187974 C139.598658,9.23187974 137.585291,7.24462165 137.585291,4.72216053 Z M153.229959,14.5827388 L160.741737,14.5827388 L160.741737,20.6976412 C164.691884,16.1114644 169.648393,13.5890033 176.773373,13.5890033 C183.278575,13.5890033 188.854647,15.805847 192.80415,19.5512035 C196.754297,23.2965599 199,28.6473124 199,35.0680451 C199,41.4887778 196.754297,46.8393174 192.80415,50.5086422 C188.854647,54.2539986 183.278575,56.4706294 176.695928,56.4706294 C169.957959,56.4706294 165.079112,54.3304562 160.741737,49.4382361 L160.741737,70 L153.229959,70 L153.229959,14.5827388 Z M175.921258,49.7442794 C185.292372,49.7442794 191.10078,44.3168563 191.10078,35.0680451 C191.10078,25.819021 185.292372,20.3920238 175.921258,20.3920238 C166.550145,20.3920238 160.741737,25.8954786 160.741737,35.0680451 C160.741737,44.2406117 166.550145,49.7442794 175.921258,49.7442794 Z" id="wordmark"></path>
                <path d="M43.012338,34.2441987 C43.020943,34.4629228 43.0252455,34.6816468 43.0252455,34.8982411 C43.0252455,47.881973 32.2689342,56.5387171 21.5126228,56.5387171 C10.7563114,56.5387171 0,47.881973 0,34.8982411 C0,34.6816468 0.00430252455,34.4629228 0.0129075737,34.2441987 L6.47529946,34.2441987 C6.46024062,34.4671823 6.45378683,34.6835636 6.45378683,34.8982411 C6.45378683,44.3297838 14.2714739,50.1686722 21.5126228,50.1686722 C28.7537716,50.1686722 36.5714587,44.3297838 36.5714587,34.8982411 C36.5714587,34.6835636 36.5650049,34.4671823 36.5499461,34.2441987 L43.012338,34.2441987 Z M21.5126228,8.08959502 L16.9024677,14.2257948 L8.76854504,14.2257948 C14.7210878,6.14897818 21.5126228,7.10542736e-15 21.5126228,7.10542736e-15 C21.5126228,7.10542736e-15 28.3041578,6.14897818 34.2567005,14.2257948 L26.1227778,14.2257948 L21.5126228,8.08959502 Z M38.722721,24.3709699 C38.722721,26.7164498 36.7964808,28.6174535 34.4201964,28.6174535 C32.0439121,28.6174535 30.1176719,26.7164498 30.1176719,24.3709699 C30.1176719,22.0259159 32.0439121,20.1244862 34.4201964,20.1244862 C36.7964808,20.1244862 38.722721,22.0259159 38.722721,24.3709699 Z M25.8151473,24.3709699 C25.8151473,26.7164498 23.8889071,28.6174535 21.5126228,28.6174535 C19.1363385,28.6174535 17.2100982,26.7164498 17.2100982,24.3709699 C17.2100982,22.0259159 19.1363385,20.1244862 21.5126228,20.1244862 C23.8889071,20.1244862 25.8151473,22.0259159 25.8151473,24.3709699 Z M12.9075737,24.3709699 C12.9075737,26.7164498 10.9813334,28.6174535 8.60504911,28.6174535 C6.2287648,28.6174535 4.30252455,26.7164498 4.30252455,24.3709699 C4.30252455,22.0259159 6.2287648,20.1244862 8.60504911,20.1244862 C10.9813334,20.1244862 12.9075737,22.0259159 12.9075737,24.3709699 Z" id="drip"></path>
            </g>
        </g>
    </g>
</svg>